<svg version="1.1" id="Layer_1" xmlns="http://www.w3.org/2000/svg" xmlns:xlink="http://www.w3.org/1999/xlink" x="0px" y="0px"
	 width="100%" viewBox="250 350 1050 300" xml:space="preserve">

<path fill="#F472B6" opacity="1.000000" stroke="none" 
	d="
M784.000000,419.088226 
	C793.904785,419.089355 803.309570,419.089355 814.305969,419.089355 
	C812.163879,421.399231 811.140808,422.576172 810.041504,423.676941 
	C791.205383,442.537445 772.495605,461.527130 753.447998,480.171631 
	C746.090271,487.373627 743.252014,496.057587 743.139832,505.823059 
	C742.937012,523.481262 743.008484,541.144531 743.149780,558.804199 
	C743.257141,572.227966 747.067261,577.280640 759.885925,581.380249 
	C764.955078,583.001465 770.159180,584.199890 775.231506,585.811951 
	C776.192444,586.117371 776.822021,587.465149 777.604553,588.331909 
	C776.656372,588.799133 775.709106,589.672119 774.759949,589.674316 
	C750.769836,589.729309 726.779541,589.695557 702.789307,589.651672 
	C702.342468,589.650879 701.896179,589.338440 699.746521,588.534302 
	C702.250732,587.058655 703.675415,585.876648 705.312805,585.316956 
	C710.812500,583.436768 716.435303,581.914185 721.923401,580.003174 
	C730.054016,577.172119 734.713745,570.950073 734.892212,562.721924 
	C735.340027,542.082153 735.291260,521.416992 734.782471,500.778259 
	C734.574768,492.354431 730.028992,485.388397 724.026917,479.401245 
	C706.925476,462.342316 689.940308,445.166687 672.920166,428.026276 
	C670.396179,425.484406 667.930176,422.884857 665.877869,419.087097 
	C705.085266,419.087097 744.292603,419.087097 784.000000,419.088226 
M691.709290,435.786652 
	C707.914795,451.491516 724.120300,467.196411 739.926147,482.513916 
	C755.414734,461.777161 777.543457,445.786530 796.902466,426.257446 
	C758.570129,426.257446 720.945374,426.257446 681.656189,426.257446 
	C685.528503,429.937286 688.356873,432.625092 691.709290,435.786652 
z"/>
<path fill="#FFFFFF" opacity="1.000000" stroke="none" 
	d="
M305.843323,537.999084 
	C305.841003,513.848633 305.841003,490.198273 305.841003,465.879395 
	C310.483246,465.879395 314.902740,465.879059 319.322266,465.879456 
	C330.984070,465.880493 342.652679,465.650299 354.304474,465.992554 
	C359.227142,466.137177 364.295105,466.918152 368.980682,468.406067 
	C379.084290,471.614410 385.194031,478.553009 386.015594,489.455231 
	C386.837799,500.365387 382.051270,508.014496 372.225098,512.632996 
	C371.798950,512.833252 371.430786,513.156921 370.908752,513.508545 
	C374.018524,514.903748 377.136353,515.962158 379.904846,517.608215 
	C388.357269,522.633667 392.641998,530.179199 392.011536,540.046143 
	C391.402130,549.583618 386.724884,557.107727 378.081360,560.990906 
	C372.288452,563.593445 365.711243,565.504395 359.413879,565.728638 
	C341.787109,566.356262 324.123413,565.947144 305.845642,565.947144 
	C305.845642,556.675293 305.845642,547.587219 305.843323,537.999084 
M318.362000,552.248779 
	C318.419983,554.152954 317.755615,556.299988 321.084259,556.255676 
	C334.054138,556.083008 347.036896,556.371521 359.993042,555.895081 
	C366.229614,555.665771 372.129639,553.411255 375.939911,547.898560 
	C383.941193,536.322510 376.384003,521.328430 361.261536,520.163940 
	C348.198547,519.158020 335.015350,519.702026 321.884979,519.601501 
	C320.795654,519.593140 319.703918,519.895142 318.363251,520.089233 
	C318.363251,530.681946 318.363251,540.988892 318.362000,552.248779 
M326.558167,475.720520 
	C323.949554,475.720520 321.340942,475.720520 318.519531,475.720520 
	C318.519531,487.410431 318.519531,498.500580 318.519531,509.820831 
	C331.548981,509.820831 344.330811,509.863312 357.111603,509.767639 
	C358.729858,509.755554 360.385681,509.142639 361.950714,508.597504 
	C369.218170,506.066101 373.249146,500.063690 373.146729,492.069672 
	C373.055908,484.982086 368.690186,479.130493 361.384094,477.147675 
	C357.900940,476.202332 354.173553,475.900146 350.543732,475.804901 
	C342.882263,475.603943 335.212128,475.730896 326.558167,475.720520 
z"/>
<path fill="#FFFFFF" opacity="1.000000" stroke="none" 
	d="
M606.321533,552.725220 
	C600.091370,545.098755 594.247498,537.606201 587.992554,530.474182 
	C586.495300,528.766968 583.669373,527.461975 581.385376,527.347046 
	C573.743225,526.962708 566.069763,527.201233 557.694214,527.201233 
	C557.694214,540.233459 557.694214,552.963440 557.694214,565.774292 
	C553.031433,565.774292 549.085632,565.774292 545.009644,565.774292 
	C545.009644,532.559570 545.009644,499.572449 545.009644,466.216217 
	C546.243286,466.105988 547.504883,465.897156 548.766663,465.895264 
	C563.598694,465.872955 578.455811,465.376068 593.251587,466.108734 
	C600.029419,466.444336 607.083862,468.318420 613.310181,471.079437 
	C623.989990,475.815430 628.338623,485.136810 628.179810,496.614563 
	C628.017151,508.368439 622.696350,517.014709 612.130920,522.168152 
	C608.573425,523.903381 604.675903,524.941528 600.320923,526.520508 
	C610.754822,539.366333 621.181885,552.203674 632.350098,565.953552 
	C626.999023,565.953552 622.475891,566.101257 617.976074,565.842529 
	C616.939514,565.782959 615.826233,564.460571 615.018005,563.493835 
	C612.134949,560.045471 609.368042,556.500061 606.321533,552.725220 
M608.956970,511.504547 
	C621.071716,497.969269 615.948425,479.776001 598.054810,477.065308 
	C584.951721,475.080322 571.306091,476.676483 557.922729,476.676483 
	C557.922729,490.098572 557.922729,503.813843 557.922729,517.761597 
	C569.420166,517.761597 580.607605,518.383545 591.675720,517.504028 
	C597.367249,517.051758 602.846069,513.922852 608.956970,511.504547 
z"/>
<path fill="#EF4444" opacity="1.000000" stroke="none" 
	d="
M1080.819824,553.183533 
	C1064.516724,536.581421 1061.043701,517.259460 1068.897583,496.351532 
	C1076.777466,475.374023 1093.608154,465.493988 1115.302490,464.425232 
	C1137.217651,463.345642 1154.905518,471.958893 1165.190918,491.857117 
	C1174.151123,509.191589 1173.343628,527.053406 1162.900269,543.717163 
	C1152.008057,561.096985 1135.442993,568.239014 1115.363647,567.494385 
	C1102.318359,567.010559 1090.653687,562.627808 1080.819824,553.183533 
M1128.050537,555.886841 
	C1146.559937,551.456055 1157.081299,535.251038 1158.366577,519.197327 
	C1159.959229,499.305725 1148.344360,482.050385 1129.493408,476.591492 
	C1110.499512,471.091187 1089.987183,479.449829 1081.792114,496.985474 
	C1074.634033,512.301941 1075.770142,527.631836 1085.935791,541.398438 
	C1096.235718,555.346924 1110.664185,559.023010 1128.050537,555.886841 
z"/>
<path fill="#FFFFFF" opacity="1.000000" stroke="none" 
	d="
M460.687927,465.955414 
	C464.944000,465.928955 468.768127,465.928955 472.665375,465.928955 
	C488.841675,499.122986 504.962769,532.203735 521.418640,565.971497 
	C517.078430,565.971497 513.313538,566.204041 509.607117,565.840149 
	C508.377594,565.719482 506.848694,564.295105 506.225616,563.074280 
	C502.830414,556.421448 499.560455,549.697754 496.496124,542.886597 
	C495.333435,540.302307 494.029541,539.122864 490.965607,539.157837 
	C473.815887,539.353333 456.662048,539.205383 439.513489,539.449707 
	C437.884552,539.472900 435.598419,541.022461 434.787750,542.503845 
	C431.442291,548.617371 428.273438,554.863098 425.590576,561.290161 
	C423.970734,565.170715 421.661560,566.520691 417.683258,566.014771 
	C415.576202,565.746765 413.407013,565.967346 410.503540,565.967346 
	C416.079346,554.603760 421.406555,543.787598 426.698059,532.954041 
	C436.898163,512.070801 447.062897,491.170319 457.297333,470.304047 
	C458.058197,468.752777 459.259460,467.417542 460.687927,465.955414 
M444.069153,529.898376 
	C459.175415,529.898376 474.281677,529.898376 490.135162,529.898376 
	C481.836884,512.535217 473.843597,495.810272 465.628418,478.621002 
	C459.893890,490.417969 454.447601,501.622101 449.001160,512.826172 
	C446.675903,517.609497 444.278473,522.360596 442.115540,527.216248 
	C441.844635,527.824402 442.811310,528.983826 444.069153,529.898376 
z"/>
<path fill="#EF4444" opacity="1.000000" stroke="none" 
	d="
M899.881042,526.965576 
	C891.418823,527.788574 883.351562,528.705994 875.258240,529.151123 
	C869.158508,529.486633 863.025391,529.217468 856.374512,529.217468 
	C856.374512,541.545959 856.374512,553.465210 856.374512,565.700562 
	C852.078125,565.700562 848.317749,565.700562 844.124756,565.700562 
	C844.124756,532.658508 844.124756,499.638336 844.124756,465.868011 
	C847.308838,465.868011 850.566406,465.873718 853.824036,465.866943 
	C864.312256,465.845123 874.811707,465.521759 885.284119,465.916687 
	C890.691956,466.120636 896.276489,466.924469 901.389099,468.631470 
	C914.095581,472.873840 920.709595,482.340363 921.718628,495.520966 
	C922.696350,508.291840 916.020874,519.326782 904.382141,525.073303 
	C903.042603,525.734680 901.638733,526.265625 899.881042,526.965576 
M892.247070,476.929199 
	C880.385742,476.929199 868.524414,476.929199 856.409180,476.929199 
	C856.409180,490.873688 856.409180,504.909180 856.409180,519.178467 
	C866.964844,519.178467 877.232788,519.539124 887.464478,519.084351 
	C899.404907,518.553406 907.833984,511.022614 909.029236,500.736206 
	C910.371155,489.188019 904.914246,481.105896 892.247070,476.929199 
z"/>
<path fill="#EF4444" opacity="1.000000" stroke="none" 
	d="
M1226.708008,537.000000 
	C1226.709473,546.791687 1226.709473,556.083313 1226.709473,565.696655 
	C1222.444702,565.696655 1218.711548,565.696655 1214.355225,565.696655 
	C1214.355225,535.977478 1214.355225,506.405243 1214.355225,476.343109 
	C1203.006470,476.343109 1192.260742,476.343109 1181.284912,476.343109 
	C1181.284912,472.755005 1181.284912,469.662598 1181.284912,466.168579 
	C1207.717651,466.168579 1233.940552,466.168579 1260.426758,466.168579 
	C1260.426758,469.424744 1260.426758,472.528595 1260.426758,476.182800 
	C1249.427979,476.182800 1238.494263,476.182800 1226.706543,476.182800 
	C1226.706543,496.646942 1226.706543,516.573486 1226.708008,537.000000 
z"/>
<path fill="#EF4444" opacity="1.000000" stroke="none" 
	d="
M1002.237427,483.275818 
	C1002.232910,507.682037 1002.232910,531.634521 1002.232910,556.025696 
	C1019.819092,556.025696 1036.596802,556.025696 1053.676636,556.025696 
	C1053.676636,559.378052 1053.676636,562.294983 1053.676636,565.621338 
	C1032.612305,565.621338 1011.563721,565.621338 990.194214,565.621338 
	C990.194214,532.623230 990.194214,499.698273 990.194214,466.334534 
	C994.003418,466.334534 997.866394,466.334534 1002.241943,466.334534 
	C1002.241943,471.911163 1002.241943,477.366638 1002.237427,483.275818 
z"/>
<path fill="#EF4444" opacity="1.000000" stroke="none" 
	d="
M957.023865,531.000000 
	C957.024292,542.778015 957.024292,554.056091 957.024292,565.676025 
	C952.838623,565.676025 949.117981,565.676025 945.050903,565.676025 
	C945.050903,532.571228 945.050903,499.569794 945.050903,466.238495 
	C948.961914,466.238495 952.692749,466.238495 957.023438,466.238495 
	C957.023438,487.706665 957.023438,509.103333 957.023865,531.000000 
z"/>
<path fill="NONE" opacity="1.000000" stroke="none" 
	d="
M691.447266,435.549774 
	C688.356873,432.625092 685.528503,429.937286 681.656189,426.257446 
	C720.945374,426.257446 758.570129,426.257446 796.902466,426.257446 
	C777.543457,445.786530 755.414734,461.777161 739.926147,482.513916 
	C724.120300,467.196411 707.914795,451.491516 691.447266,435.549774 
M766.494202,431.167053 
	C743.568237,431.167053 720.642334,431.167053 697.175049,431.167053 
	C700.004639,435.862000 703.240906,437.074036 707.699524,437.029266 
	C729.978027,436.805511 752.260681,436.807526 774.539795,436.982056 
	C778.595703,437.013855 780.362732,434.983978 782.486267,431.160126 
	C776.991882,431.160126 772.241516,431.160126 766.494202,431.167053 
z"/>
<path fill="NONE" opacity="1.000000" stroke="none" 
	d="
M318.362610,551.772278 
	C318.363251,540.988892 318.363251,530.681946 318.363251,520.089233 
	C319.703918,519.895142 320.795654,519.593140 321.884979,519.601501 
	C335.015350,519.702026 348.198547,519.158020 361.261536,520.163940 
	C376.384003,521.328430 383.941193,536.322510 375.939911,547.898560 
	C372.129639,553.411255 366.229614,555.665771 359.993042,555.895081 
	C347.036896,556.371521 334.054138,556.083008 321.084259,556.255676 
	C317.755615,556.299988 318.419983,554.152954 318.362610,551.772278 
z"/>
<path fill="NONE" opacity="1.000000" stroke="none" 
	d="
M327.051880,475.721924 
	C335.212128,475.730896 342.882263,475.603943 350.543732,475.804901 
	C354.173553,475.900146 357.900940,476.202332 361.384094,477.147675 
	C368.690186,479.130493 373.055908,484.982086 373.146729,492.069672 
	C373.249146,500.063690 369.218170,506.066101 361.950714,508.597504 
	C360.385681,509.142639 358.729858,509.755554 357.111603,509.767639 
	C344.330811,509.863312 331.548981,509.820831 318.519531,509.820831 
	C318.519531,498.500580 318.519531,487.410431 318.519531,475.720520 
	C321.340942,475.720520 323.949554,475.720520 327.051880,475.721924 
z"/>
<path fill="NONE" opacity="1.000000" stroke="none" 
	d="
M608.688965,511.753967 
	C602.846069,513.922852 597.367249,517.051758 591.675720,517.504028 
	C580.607605,518.383545 569.420166,517.761597 557.922729,517.761597 
	C557.922729,503.813843 557.922729,490.098572 557.922729,476.676483 
	C571.306091,476.676483 584.951721,475.080322 598.054810,477.065308 
	C615.948425,479.776001 621.071716,497.969269 608.688965,511.753967 
z"/>
<path fill="NONE" opacity="1.000000" stroke="none" 
	d="
M1127.634521,555.950317 
	C1110.664185,559.023010 1096.235718,555.346924 1085.935791,541.398438 
	C1075.770142,527.631836 1074.634033,512.301941 1081.792114,496.985474 
	C1089.987183,479.449829 1110.499512,471.091187 1129.493408,476.591492 
	C1148.344360,482.050385 1159.959229,499.305725 1158.366577,519.197327 
	C1157.081299,535.251038 1146.559937,551.456055 1127.634521,555.950317 
z"/>
<path fill="NONE" opacity="1.000000" stroke="none" 
	d="
M443.636871,529.893127 
	C442.811310,528.983826 441.844635,527.824402 442.115540,527.216248 
	C444.278473,522.360596 446.675903,517.609497 449.001160,512.826172 
	C454.447601,501.622101 459.893890,490.417969 465.628418,478.621002 
	C473.843597,495.810272 481.836884,512.535217 490.135162,529.898376 
	C474.281677,529.898376 459.175415,529.898376 443.636871,529.893127 
z"/>
<path fill="NONE" opacity="1.000000" stroke="none" 
	d="
M892.653198,477.006104 
	C904.914246,481.105896 910.371155,489.188019 909.029236,500.736206 
	C907.833984,511.022614 899.404907,518.553406 887.464478,519.084351 
	C877.232788,519.539124 866.964844,519.178467 856.409180,519.178467 
	C856.409180,504.909180 856.409180,490.873688 856.409180,476.929199 
	C868.524414,476.929199 880.385742,476.929199 892.653198,477.006104 
z"/>
<path fill="#F472B6" opacity="1.000000" stroke="none" 
	d="
M766.992676,431.163574 
	C772.241516,431.160126 776.991882,431.160126 782.486267,431.160126 
	C780.362732,434.983978 778.595703,437.013855 774.539795,436.982056 
	C752.260681,436.807526 729.978027,436.805511 707.699524,437.029266 
	C703.240906,437.074036 700.004639,435.862000 697.175049,431.167053 
	C720.642334,431.167053 743.568237,431.167053 766.992676,431.163574 
z"/>
</svg>
